<svg xmlns="http://www.w3.org/2000/svg" width="621" height="592.444" viewBox="0 0 621 592.444">
  <g id="Group_4120" data-name="Group 4120" transform="translate(0 -284.5)">
    <path id="blob_3_" data-name="blob (3)" d="M244.335.014c42.789,27.781,88.133,67.7,87.175,106.654-1.277,39.277-48.856,76.957-91.645,117.511-42.789,40.235-80.469,83.343-127.09,91.965-46.3,8.3-101.225-17.563-132.2-57.8-30.974-40.554-38-95.477-35.445-147.527C-52,58.45-39.542,8.955-8.568-18.826,22.406-46.288,71.9-52.355,116.606-47.885,161.631-43.095,201.546-27.767,244.335.014Z" transform="matrix(-0.035, 0.999, -0.999, -0.035, 329.07, 469.182)" fill="#7970CC"/>
    <path id="blob_3_2" data-name="blob (3)" d="M327.172,13.622c54.617,35.46,112.494,86.408,111.271,136.134-1.63,50.133-62.361,98.228-116.977,149.992C266.849,351.1,218.754,406.128,159.246,417.133c-59.1,10.6-129.2-22.417-168.741-73.773C-49.03,291.6-58,221.491-54.737,155.054c3.668-66.844,19.564-130.02,59.1-165.48,39.536-35.052,102.712-42.8,159.774-37.09C221.607-41.4,272.555-21.838,327.172,13.622Z" transform="translate(200.947 811.331) rotate(-104)" fill="#2F2282"/>
  </g>
</svg>
