<?xml version="1.0" encoding="UTF-8" standalone="no"?>
<svg
   viewBox="-1.025 -1.025 60.65 60.65"
   version="1.1"
   id="svg605"
   sodipodi:docname="logo.svg"
   inkscape:export-filename="logo.png"
   inkscape:export-xdpi="405.21021"
   inkscape:export-ydpi="405.21021"
   inkscape:version="1.2.1 (9c6d41e, 2022-07-14)"
   xmlns:inkscape="http://www.inkscape.org/namespaces/inkscape"
   xmlns:sodipodi="http://sodipodi.sourceforge.net/DTD/sodipodi-0.dtd"
   xmlns="http://www.w3.org/2000/svg"
   xmlns:svg="http://www.w3.org/2000/svg">
  <defs
     id="defs609" />
  <sodipodi:namedview
     id="namedview607"
     pagecolor="#ffffff"
     bordercolor="#000000"
     borderopacity="0.25"
     inkscape:showpageshadow="2"
     inkscape:pageopacity="0.0"
     inkscape:pagecheckerboard="0"
     inkscape:deskcolor="#d1d1d1"
     showgrid="false"
     inkscape:zoom="3.8911788"
     inkscape:cx="6.039301"
     inkscape:cy="37.263772"
     inkscape:window-width="1500"
     inkscape:window-height="650"
     inkscape:window-x="0"
     inkscape:window-y="38"
     inkscape:window-maximized="0"
     inkscape:current-layer="svg605" />
  <path
     d="M49.3 49.3c-11.1 11.1-29 11.1-40 0-11.1-11.1-11.1-29 0-40 11.1-11.1 29-11.1 40 0 11.1 11 11.1 28.9 0 40zM4.7 34.4l9.7 9.7c8.2 8.2 21.5 8.2 29.7 0M9.9 29.3l9.7 9.7c5.4 5.4 14.1 5.4 19.4 0l17.5-17.5M44.1 44.1l13.4-13.4m-3.7-6.6l-9.7-9.7c-8.2-8.2-21.5-8.2-29.7 0m34.3 14.9L39 19.6c-5.4-5.4-14.1-5.4-19.4 0L2.1 37.1m12.3-22.7L1 27.8M33.8 34l4.8-4.8-4.3-4.3c-1.4-1.4-3.2-2.1-5-2.1s-3.6.7-5 2.1L20 29.2l4.8 4.8c1.2 1.2 2.9 1.9 4.5 1.9s3.2-.6 4.5-1.9z"
     fill="none"
     stroke="#282828"
     stroke-width="2"
     stroke-miterlimit="10"
     id="path603"
     style="stroke:#1d65d5;stroke-opacity:1;stroke-width:4.2;stroke-dasharray:none" />
</svg>
